<?xml version="1.0" encoding="UTF-8" standalone="no"?>
<!-- Created with Inkscape (http://www.inkscape.org/) -->

<svg
   width="210mm"
   height="297mm"
   viewBox="0 0 793.7008 1122.5197"
   version="1.1"
   id="svg5"
   inkscape:version="1.1.2 (0a00cf5339, 2022-02-04, custom)"
   sodipodi:docname="cantonia-history-cover.svg"
   inkscape:export-filename="C:\Users\bctnr\Documents\titlescreen\cantonia-history-cover.png"
   inkscape:export-xdpi="119.98721"
   inkscape:export-ydpi="119.98721"
   xmlns:inkscape="http://www.inkscape.org/namespaces/inkscape"
   xmlns:sodipodi="http://sodipodi.sourceforge.net/DTD/sodipodi-0.dtd"
   xmlns="http://www.w3.org/2000/svg"
   xmlns:svg="http://www.w3.org/2000/svg">
  <sodipodi:namedview
     id="namedview7"
     pagecolor="#ffffff"
     bordercolor="#666666"
     borderopacity="1.0"
     inkscape:pageshadow="2"
     inkscape:pageopacity="0.0"
     inkscape:pagecheckerboard="0"
     inkscape:document-units="mm"
     showgrid="false"
     inkscape:zoom="0.46929649"
     inkscape:cx="203.49609"
     inkscape:cy="692.52596"
     inkscape:window-width="1920"
     inkscape:window-height="1027"
     inkscape:window-x="-8"
     inkscape:window-y="22"
     inkscape:window-maximized="1"
     inkscape:current-layer="layer1" />
  <defs
     id="defs2" />
  <g
     inkscape:label="Layer 1"
     inkscape:groupmode="layer"
     id="layer1">
    <rect
       fill="#da121a"
       height="1122.5197"
       width="264.56693"
       id="rect4356-9"
       style="mix-blend-mode:soft-light;fill:#0080c1;fill-opacity:1;stroke-width:1.0704"
       x="529.13385"
       y="0" />
    <rect
       fill="#fcdd09"
       height="1122.5197"
       width="264.56693"
       id="rect4358-7"
       style="mix-blend-mode:soft-light;fill:#cc9866;fill-opacity:1;stroke-width:1.31097"
       x="264.56693"
       y="0" />
    <rect
       fill="#078930"
       height="1122.5197"
       width="264.56693"
       id="rect4360-8"
       style="mix-blend-mode:soft-light;fill:#1ee085;fill-opacity:1;stroke-width:1.85399"
       x="0"
       y="8.8817842e-16" />
    <path
       id="path4-3-9"
       d="m 161.8182,119.55212 c -0.11646,0.19228 0.0607,1.33602 0.38901,2.54778 0.33083,1.2101 0.76328,2.96536 0.95936,3.8999 0.19538,0.93421 0.49669,1.95949 0.66948,2.27836 0.17105,0.31687 0.44025,1.16066 0.59658,1.87421 0.15628,0.71338 0.4194,1.55717 0.58698,1.87438 0.1659,0.31886 0.48368,1.30218 0.70337,2.18362 1.01204,4.0376 1.23962,4.86248 1.54059,5.5684 0.17531,0.41525 0.42724,1.13661 0.55662,1.60446 0.19972,0.71736 0.51147,0.85688 1.99775,0.89488 0.97072,0.0266 2.65052,0.10613 3.73785,0.17817 l 1.97517,0.12941 v -11.69123 -11.69141 h -6.74949 c -3.7134,0 -6.84543,0.1543 -6.96399,0.34725 m 17.67524,0.49621 c -0.10684,0.47018 -0.15197,5.69664 -0.10315,11.61409 l 0.0923,10.75902 h 2.89878 c 3.3334,0 3.83184,0.36598 4.24568,3.12944 0.13372,0.88925 0.48541,2.20089 0.78066,2.91261 0.29696,0.71172 0.54009,1.71942 0.54009,2.23854 0,0.51894 0.23535,1.50059 0.52103,2.18196 0.28566,0.68154 0.71637,2.00478 0.95749,2.93882 1.53499,5.96275 1.44467,6.21956 1.48983,-4.23188 l 0.0435,-9.70569 -1.47862,-1.37218 c -5.87661,-5.45691 -3.76035,-16.79726 3.14717,-16.85947 7.49068,-0.0663 9.85337,12.99954 3.11135,17.20686 l -1.05149,0.65682 0.11115,18.38279 c 0.0782,13.54105 0.23098,18.5827 0.56619,19.13947 0.25007,0.4151 0.64343,1.60462 0.87479,2.64252 0.75632,3.39754 1.43335,6.00803 2.05605,7.92771 0.62259,1.92315 1.70992,5.88891 2.64115,9.62622 0.28395,1.14208 0.79195,3.0956 1.12869,4.34137 0.56964,2.1083 0.90856,3.44117 2.11815,8.3053 1.08534,4.36194 1.56885,4.37521 2.54896,0.0697 0.47933,-2.11411 1.08917,-4.52453 1.35438,-5.35504 0.26311,-0.83035 0.74502,-2.52938 1.06657,-3.77515 0.96508,-3.71656 2.86875,-10.81341 3.44257,-12.83512 0.29524,-1.03806 0.64691,-2.48192 0.78063,-3.20891 0.13537,-0.72665 0.35168,-1.49097 0.48193,-1.69853 0.12941,-0.2082 0.43069,-1.22684 0.66953,-2.26491 0.23876,-1.03839 0.71288,-2.99174 1.05335,-4.34153 0.51928,-2.04791 0.63389,-4.97943 0.70336,-17.7429 0.10507,-19.2075 0.15446,-18.71278 -2.08436,-20.83252 -4.28714,-4.06581 -3.72653,-13.21838 0.96134,-15.66463 8.00041,-4.17149 13.26391,9.73191 6.13436,16.20431 l -1.55577,1.41184 -0.0521,8.85096 c -0.026,4.86778 0.0782,9.41305 0.24315,10.10188 0.27266,1.14955 0.29869,1.16829 0.33517,0.23607 0.0179,-0.55694 0.23707,-1.4913 0.47929,-2.07644 0.42115,-1.00986 1.03284,-3.31078 1.80975,-6.80073 0.19362,-0.87215 0.52102,-1.8913 0.72767,-2.26525 0.20667,-0.37345 0.56268,-1.52864 0.7902,-2.56703 0.76934,-3.51069 0.84491,-3.77496 1.21709,-4.24696 0.23878,-0.30178 1.40141,-0.47366 3.24117,-0.4773 1.58023,-0.002 3.2525,-0.10784 3.71713,-0.23227 l 0.84666,-0.22845 v -11.26271 -11.26486 l -1.22274,-0.22098 c -0.67121,-0.11945 -6.30185,-0.17337 -12.50958,-0.11116 l -11.28686,0.1095 -0.18842,15.10022 c -0.19971,16.06876 -0.24055,16.42181 -1.89996,16.42181 -1.65733,0 -1.66297,-0.0465 -1.86235,-16.23268 l -0.18842,-15.28935 -12.12395,-0.10122 -12.12578,-0.0962 -0.19364,0.85541 m 57.23735,-0.59294 c -0.1372,0.14101 -0.25008,5.30011 -0.25008,11.47058 v 11.21758 l 0.84664,0.22845 c 3.05302,0.82088 6.30552,-0.0448 6.29986,-1.67978 -0.002,-0.29449 0.2449,-1.30052 0.54794,-2.23506 0.30132,-0.9342 0.81624,-2.63306 1.14369,-3.77481 0.32737,-1.14191 0.91238,-3.18086 1.29982,-4.53032 0.38728,-1.34946 0.89735,-3.21804 1.13251,-4.15258 0.23533,-0.93453 0.59829,-2.37076 0.8067,-3.19381 0.20665,-0.82304 0.55659,-1.71196 0.77716,-1.9779 1.13624,-1.37235 0.17892,-1.6232 -6.19453,-1.6232 -3.38793,0 -6.2699,0.11281 -6.40909,0.25085 m -128.32946,4.11656 c -0.32564,0.327 -0.59048,0.92326 -0.59048,1.32739 0,0.40365 -0.15976,1.02861 -0.3534,1.38895 -0.19539,0.36068 -0.96691,2.94811 -1.71561,5.75138 -0.74851,2.80295 -1.60641,5.65516 -1.90366,6.3362 -0.29697,0.68169 -0.54707,1.6159 -0.55487,2.07679 -0.006,0.46021 -0.25617,1.26053 -0.55141,1.77947 -0.29524,0.51912 -0.54359,1.46295 -0.55138,2.09902 -0.006,0.63408 -0.2614,1.48351 -0.56618,1.88748 -0.30306,0.40233 -0.55836,1.15718 -0.56616,1.67613 -0.006,0.51928 -0.24488,1.38563 -0.52447,1.92713 -0.28222,0.53985 -0.635631,1.81433 -0.785881,2.83132 -0.1518,1.01583 -0.38554,2.01805 -0.51925,2.2256 -0.13389,0.20837 -0.43419,1.05713 -0.66779,1.88748 -0.48887,1.74399 -2.11813,7.35551 -3.01359,10.38126 -0.33866,1.14191 -0.78846,2.501 -0.99886,3.02028 -0.21101,0.51927 -0.50798,1.6232 -0.66253,2.45371 -0.15446,0.83051 -0.48368,2.10449 -0.73202,2.83131 -1.10802,3.2353 -2.01281,6.27199 -2.81232,9.4376 -0.29003,1.14208 -0.78411,2.92605 -1.10227,3.96394 -0.31609,1.03805 -0.93496,3.16146 -1.37329,4.71896 -0.44026,1.55716 -1.36567,4.69971 -2.05983,6.98354 -1.39957,4.60566 -1.83218,6.98422 -1.27165,6.98422 0.32735,0 2.48503,-1.38015 2.97034,-1.90109 0.732,-0.78323 3.72649,-3.00684 4.05197,-3.00684 0.22055,0 0.45673,-0.16259 0.52446,-0.35869 0.10685,-0.30393 5.1487,-4.20516 7.82928,-6.0588 1.640411,-1.13445 2.364611,-1.71163 2.957171,-2.35948 0.33345,-0.36215 0.80323,-0.66079 1.04593,-0.66079 0.24312,0 0.53837,-0.25483 0.65646,-0.56606 0.12062,-0.3114 0.44373,-0.5664 0.72248,-0.5664 0.27871,0 0.99328,-0.50932 1.58768,-1.13246 0.59482,-0.62263 1.26604,-1.13246 1.49182,-1.13246 0.22578,0 0.67557,-0.29629 0.99886,-0.66062 0.32562,-0.3625 0.97999,-0.91546 1.45786,-1.22686 1.26598,-0.8267 4.23825,-3.04482 4.8929,-3.65054 0.30998,-0.28884 1.24154,-0.99841 2.06917,-1.57991 1.36764,-0.95875 1.62154,-1.41731 2.77095,-4.99038 0.69644,-2.16521 1.41646,-4.23021 1.59902,-4.59056 0.18235,-0.36051 0.33083,-0.87032 0.32733,-1.13278 -0.005,-0.48494 1.219,-4.68098 2.06553,-7.08392 1.37131,-3.88629 2.12753,-6.32309 2.86871,-9.24863 0.21097,-0.83052 0.5418,-1.67248 0.73549,-1.86875 0.19538,-0.19809 0.35512,-0.7663 0.35512,-1.26468 0,-0.49838 0.23707,-1.44004 0.52449,-2.09503 0.29004,-0.65333 0.91237,-2.42202 1.38641,-3.92993 1.4635,-4.65659 0.13903,-4.30387 15.90316,-4.23934 7.48127,0.0316 13.80757,0.0415 14.05968,0.0266 0.95373,-0.0614 -0.6695,-2.67254 -1.66107,-2.67254 -0.28828,0 -0.72764,-0.17652 -0.97635,-0.38888 -0.56012,-0.47946 -3.72461,-2.7482 -6.30177,-4.51872 -1.87363,-1.28708 -8.06444,-5.70609 -8.83572,-6.30633 -1.26976,-0.98928 -3.91466,-2.75384 -4.12723,-2.75384 -0.13903,0 -0.97449,-0.59443 -1.85852,-1.32126 l -1.60653,-1.32124 h -13.0081 c -11.32449,0 -13.08523,0.078 -13.60065,0.5926 m 163.8755,2.14248 c -2.1427,1.50641 -4.17424,2.90862 -4.51476,3.116 -0.34038,0.20837 -0.7546,0.59095 -0.9199,0.84943 -0.16591,0.26047 -0.49322,0.47183 -0.72767,0.47183 -0.23532,0 -0.81277,0.36283 -1.2829,0.80629 -0.47067,0.44346 -1.68364,1.33437 -2.69753,1.98189 -3.23936,2.06882 -5.85414,3.88845 -7.59421,5.2832 -0.93113,0.7474 -1.86235,1.36672 -2.06926,1.37601 -0.70166,0.0316 -2.53767,1.78745 -2.37772,2.27238 0.12576,0.37776 3.22425,0.48892 14.42644,0.51563 l 14.26846,0.0332 1.02141,1.88749 c 0.56269,1.03823 1.03281,2.25016 1.04595,2.69361 0.009,0.44347 0.27263,1.2929 0.58349,1.88749 0.3083,0.5946 0.56269,1.53843 0.56444,2.0972 0,0.55859 0.15445,1.10972 0.34038,1.22668 0.1867,0.11448 0.55141,1.10244 0.81105,2.19176 0.25963,1.09098 0.59482,2.23837 0.7433,2.5501 0.14848,0.31107 0.56267,1.58522 0.91984,2.83099 0.35514,1.24577 0.86139,2.77474 1.12492,3.3997 0.2614,0.62279 0.59485,1.72705 0.73724,2.4537 0.14334,0.72484 0.40464,1.6592 0.58093,2.07446 0.17709,0.41493 0.69206,2.029 1.14751,3.58634 0.45328,1.55718 1.06097,3.38991 1.35066,4.07128 0.28827,0.68136 0.52273,1.64775 0.52273,2.14779 0,0.50053 0.15627,1.00637 0.34822,1.12333 0.19014,0.11945 0.46281,0.76631 0.60608,1.43838 0.2805,1.32309 1.16448,2.54414 1.84353,2.54414 0.23097,0 0.7016,0.29814 1.04219,0.66096 0.34212,0.36234 0.84663,0.83234 1.11929,1.04188 0.27268,0.21053 1.19823,0.93039 2.05607,1.60445 0.85792,0.67174 1.65159,1.22288 1.7664,1.22288 0.20664,0 9.9324,7.32181 13.5423,10.1966 3.31084,2.63836 12.028,9.05618 12.29882,9.05618 0.14085,0 0.70509,0.41725 1.25284,0.92507 l 0.99514,0.92659 v -0.85143 c 0,-0.46636 -0.1997,-1.0495 -0.44197,-1.29288 -0.2449,-0.24538 -0.56966,-1.25524 -0.72596,-2.24618 -0.39335,-2.51028 -1.06469,-5.0078 -1.68918,-6.26866 -0.29176,-0.58863 -0.52883,-1.35312 -0.52707,-1.69869 0.002,-0.34707 -0.23881,-1.39459 -0.53407,-2.32912 -0.29522,-0.9342 -0.88224,-2.88804 -1.30546,-4.34136 -1.0553,-3.62965 -1.91879,-6.49315 -2.53391,-8.41265 -0.28568,-0.88907 -0.51928,-1.91784 -0.51928,-2.284 0,-0.36598 -0.15197,-0.82669 -0.33694,-1.02478 -0.18408,-0.19826 -0.51491,-1.12317 -0.73198,-2.0577 -0.72771,-3.11584 -1.27353,-5.09059 -1.5839,-5.70958 -0.16766,-0.33795 -0.4142,-1.27248 -0.54529,-2.07629 -0.13189,-0.80413 -0.45936,-2.05736 -0.72769,-2.78419 -0.26921,-0.72648 -0.7754,-2.34056 -1.12685,-3.58634 -0.6226,-2.2178 -1.91691,-6.61756 -2.49626,-8.49377 -0.15976,-0.51894 -0.57919,-1.96313 -0.9312,-3.20874 -0.86745,-3.06922 -1.98271,-6.81417 -2.64106,-8.87153 -0.30134,-0.93421 -0.54535,-2.04809 -0.54361,-2.47247 0.002,-0.4267 -0.1659,-0.942 -0.37077,-1.14772 -0.20494,-0.20639 -0.52882,-1.13263 -0.71641,-2.05754 -0.19016,-0.92673 -0.521,-2.19341 -0.73897,-2.81605 -0.21621,-0.62297 -0.95187,-2.91625 -1.63473,-5.09639 l -1.23965,-3.96378 -13.16797,-0.0946 -13.16797,-0.0962 -3.89583,2.74055 m -136.44841,25.6819 c -0.28741,0.16425 -0.62434,0.92657 -0.74852,1.69852 -0.12427,0.77411 -0.44198,1.83108 -0.70335,2.35036 -0.26312,0.51878 -1.02517,2.72745 -1.69301,4.90743 -0.66604,2.17981 -1.38822,4.47326 -1.60462,5.09657 -0.2145,0.62263 -0.51493,1.72672 -0.66603,2.45353 -0.1503,0.72667 -0.46109,1.6612 -0.69033,2.07613 -0.22751,0.41541 -0.58352,1.4349 -0.7902,2.26508 -0.20493,0.83068 -0.62435,2.35949 -0.93114,3.39754 -0.6035,2.03863 -3.72467,11.75959 -5.2126,16.23302 -0.20664,0.62263 -0.52099,1.81216 -0.69814,2.64233 -0.1771,0.83068 -0.73548,2.56155 -1.24338,3.84698 -0.50798,1.28542 -1.03839,3.02558 -1.1814,3.86754 -0.14151,0.84163 -0.41159,1.62702 -0.60001,1.74415 -0.46284,0.28668 -0.4368,4.81104 0.0435,7.41042 0.36906,1.99317 0.6148,4.2468 1.50497,13.70912 0.21447,2.28366 0.63907,5.59643 0.9443,7.36141 0.30653,1.76465 0.55314,4.22801 0.5514,5.47379 -0.003,1.24571 0.24489,3.96382 0.55144,6.04003 0.83881,5.70043 2.01088,16.32333 2.83106,25.67036 0.19971,2.28398 0.46108,4.66236 0.57744,5.28511 0.11812,0.62299 0.33518,1.89703 0.48193,2.83127 0.28222,1.80454 1.03274,2.11217 2.22542,0.91366 0.29523,-0.29449 0.86139,-0.53602 1.26031,-0.53602 0.39856,0 0.72592,-0.17659 0.72592,-0.38891 0,-0.21517 0.29699,-0.49816 0.65823,-0.6304 0.36121,-0.13189 1.36572,-0.721 2.23104,-1.30998 0.86487,-0.58703 1.74198,-1.06842 1.9489,-1.06842 0.20668,0 0.60786,-0.21324 0.88971,-0.4718 0.47584,-0.43416 2.16149,-1.41372 4.99448,-2.89929 0.62086,-0.32639 1.21335,-0.68124 1.31676,-0.78884 0.10315,-0.1085 0.61132,-0.40779 1.1287,-0.66443 0.51753,-0.25856 1.44845,-0.80414 2.06926,-1.21556 0.62086,-0.41162 1.38267,-0.86834 1.69301,-1.01569 0.31086,-0.14882 1.26607,-0.74544 2.12379,-1.32673 0.85794,-0.57962 1.65351,-1.05526 1.7683,-1.05526 0.11464,0 0.9368,-0.46628 1.8266,-1.03802 2.23104,-1.43094 2.84244,-1.78749 5.00382,-2.9163 2.00527,-1.04759 2.13511,-1.23831 4.23443,-6.23826 0.73896,-1.76507 1.57265,-3.54477 1.84732,-3.95442 0.27612,-0.40766 0.50188,-0.96082 0.50188,-1.225 0,-0.26437 0.48541,-1.54406 1.07788,-2.84079 1.01774,-2.23475 3.24686,-7.58596 4.3605,-10.47763 1.36383,-3.53902 5.60952,-13.445 5.89737,-13.76038 0.18062,-0.1961 0.32912,-0.62081 0.32912,-0.94349 0.002,-0.32087 0.2709,-1.09464 0.60002,-1.71777 0.32736,-0.62314 0.92549,-1.98189 1.32613,-3.02011 0.40294,-1.0379 0.96508,-2.39698 1.25105,-3.01995 0.28567,-0.6228 1.06092,-2.49154 1.72123,-4.15257 0.65995,-1.66103 1.68921,-4.0789 2.2874,-5.3718 0.60002,-1.29288 1.08924,-2.54064 1.08924,-2.77275 0,-0.23209 0.23361,-0.87232 0.51756,-1.42328 0.28568,-0.55114 0.88785,-1.85198 1.34125,-2.88988 0.45152,-1.03823 0.98008,-2.18196 1.17572,-2.54247 0.19363,-0.36052 0.35168,-0.85126 0.35168,-1.09082 0,-0.43068 1.0685,-2.90131 2.15951,-4.99452 0.61305,-1.1741 0.50798,-2.465 -0.47762,-5.906 -1.40139,-4.88686 -2.55649,-9.31882 -3.68889,-14.15673 -0.24315,-1.0379 -0.54708,-2.05737 -0.67732,-2.26509 -0.12941,-0.2082 -0.35777,-0.97202 -0.50451,-1.69851 -0.14683,-0.72683 -0.49322,-2.08591 -0.76937,-3.02011 -0.2744,-0.93421 -0.7598,-2.63323 -1.07789,-3.77515 -1.05718,-3.81661 -1.82661,-6.22703 -2.07298,-6.50077 -0.33344,-0.37361 -44.73169,-0.5566 -45.38624,-0.19211 m 93.53582,0.74226 c -0.18232,0.46966 -0.6148,1.95716 -0.95935,3.30662 -0.34384,1.34979 -0.86315,3.21837 -1.15124,4.15274 -0.28745,0.93404 -0.63389,2.33641 -0.76933,3.11815 -0.13554,0.78158 -0.39686,1.51388 -0.58096,1.62686 -0.18235,0.11281 -0.33257,0.71173 -0.33257,1.32905 0,0.617 -0.22751,1.66833 -0.50624,2.33658 -0.27699,0.6681 -0.62867,1.87422 -0.77719,2.67852 -0.15015,0.80413 -0.41158,1.73834 -0.58352,2.07628 -0.16925,0.33778 -0.76413,2.48192 -1.32058,4.76609 -1.71934,7.06667 -1.88491,7.66707 -2.17461,7.95972 -0.55312,0.55312 -0.26481,2.09703 0.84665,4.55821 0.62088,1.37385 1.12868,2.63322 1.12868,2.79763 0,0.16425 0.52101,1.45695 1.1588,2.87245 0.63736,1.41582 1.39952,3.11086 1.69304,3.76369 0.29348,0.65532 0.53402,1.42711 0.53402,1.71793 0,0.2905 0.15031,0.68883 0.33258,0.88709 0.48713,0.52458 2.94967,6.3838 3.23938,7.71419 0.1372,0.62662 0.39508,1.13809 0.56961,1.13809 0.17709,0 0.42898,0.38308 0.55834,0.84943 0.1294,0.46619 0.38729,1.18937 0.56964,1.60462 1.46736,3.33899 1.87739,4.3354 1.87739,4.56767 0,0.14765 0.50797,1.34597 1.12867,2.66324 0.62088,1.31944 1.12868,2.64252 1.12868,2.94065 0,0.29846 0.15628,0.64023 0.34822,0.75719 0.19015,0.11944 0.45501,0.71537 0.58873,1.32689 0.13373,0.60954 0.73895,2.08176 1.34686,3.27295 0.60527,1.18936 1.10241,2.33294 1.10241,2.54065 0,0.39618 1.17754,3.10317 2.0974,4.82831 0.29522,0.55092 0.53574,1.22882 0.53574,1.50445 0,0.27546 0.4142,1.35515 0.91996,2.39524 0.50622,1.04165 1.78705,4.01643 2.84799,6.61207 1.06095,2.59525 2.16714,5.27353 2.45681,5.95113 0.29004,0.6776 0.76153,1.78209 1.04966,2.45392 1.53688,3.58819 2.37588,5.14542 2.88379,5.35124 0.30998,0.12542 1.24157,0.6472 2.06926,1.15708 0.82753,0.50966 1.75885,1.04929 2.06927,1.20046 0.31,0.14881 1.97705,1.1286 3.70393,2.17808 1.72687,1.0476 3.58923,2.14239 4.13847,2.43495 0.54965,0.29258 1.0554,0.67379 1.12495,0.84941 0.0693,0.17638 0.29348,0.31894 0.49844,0.31894 0.34645,0 1.87543,0.86643 10.4027,5.89471 1.7212,1.01356 3.92213,2.24444 4.89094,2.73132 0.97067,0.48881 1.89994,1.12497 2.06547,1.41564 1.19831,2.1045 2.90826,-0.66445 2.89132,-4.68108 -0.006,-1.39308 0.719,-8.24289 1.70804,-16.11943 0.88979,-7.09735 1.35819,-11.54225 1.67235,-15.92156 0.16767,-2.31957 0.48368,-5.03775 0.70164,-6.04013 0.21967,-1.00204 0.58265,-3.85986 0.80495,-6.3513 0.22403,-2.49155 0.65472,-6.56879 0.95561,-9.06034 1.60643,-13.23331 1.61027,-14.61893 0.0693,-19.63039 -0.32219,-1.03788 -0.78413,-2.6518 -1.03093,-3.58617 -0.24834,-0.93437 -0.68251,-2.14994 -0.96691,-2.70108 -0.28568,-0.55096 -0.51927,-1.49295 -0.51927,-2.09502 0,-0.60023 -0.18235,-1.27613 -0.40638,-1.50044 -0.22228,-0.22296 -0.54532,-0.97965 -0.719,-1.6801 -0.17282,-0.69846 -0.48712,-1.7818 -0.69988,-2.40477 -0.21103,-0.62281 -0.6695,-2.15178 -1.01963,-3.39755 -0.34818,-1.24577 -0.86745,-2.82384 -1.15123,-3.50504 -0.2857,-0.68154 -0.51928,-1.50425 -0.51928,-1.83074 0,-0.32485 -0.23879,-1.1255 -0.52882,-1.78015 -0.29177,-0.65317 -0.81452,-2.20852 -1.16253,-3.45429 -0.34823,-1.24577 -0.95754,-3.17274 -1.35256,-4.28081 -0.39508,-1.1079 -0.72418,-2.3822 -0.73027,-2.8313 -0.006,-0.44944 -0.26138,-1.1459 -0.56442,-1.54789 -0.30479,-0.4038 -0.55314,-1.17592 -0.55314,-1.7176 0,-0.54167 -0.1596,-1.14789 -0.35514,-1.34382 -0.19365,-0.19975 -0.51582,-1.03805 -0.71466,-1.86874 -0.19712,-0.83051 -0.87098,-2.95424 -1.49356,-4.7188 l -1.13431,-3.20907 -22.79943,-0.0962 -22.80132,-0.0946 -0.33083,0.85124 m -35.83001,47.04282 c -0.34038,0.40214 -0.74329,1.12897 -0.89167,1.61971 -0.15031,0.48876 -0.39163,1.05864 -0.53839,1.26635 -0.14683,0.20853 -0.56791,1.22702 -0.9387,2.26508 -0.72073,2.0159 -1.84722,4.63767 -2.71253,6.30816 -0.54187,1.0437 -0.0869,2.56321 0.76588,2.56321 0.40638,0 6.56514,4.12038 6.84917,4.58276 0.11115,0.17851 0.44372,0.32483 0.74331,0.32483 0.29697,0 0.89734,0.35669 1.33186,0.79285 1.1814,1.18539 1.52369,0.41908 0.86139,-1.93277 -0.31955,-1.13827 -0.7207,-2.66325 -0.88979,-3.38991 -0.16927,-0.72682 -0.68686,-2.68034 -1.14751,-4.34137 -0.4611,-1.66102 -1.03081,-3.86953 -1.26223,-4.90776 -0.23358,-1.03789 -0.55835,-2.09703 -0.72421,-2.35368 -0.16326,-0.25665 -0.41766,-1.15336 -0.56267,-1.99516 -0.25357,-1.47239 -0.28572,-1.50259 -0.88406,-0.80214 m 23.4352,0.0232 c -0.28222,0.17635 -0.6452,0.97767 -0.80496,1.78181 -0.4255,2.13302 -1.49556,6.24943 -1.85105,7.12357 -0.16767,0.41525 -0.69035,2.45372 -1.16063,4.53016 -0.47064,2.07629 -1.07232,4.38086 -1.33754,5.12278 -0.3013,0.84378 -0.35339,1.54953 -0.14085,1.88732 0.18584,0.29646 0.34213,0.35504 0.34647,0.12609 0.003,-0.2263 0.81971,-0.85673 1.81346,-1.4004 0.99513,-0.54184 2.12189,-1.33453 2.50379,-1.75742 0.38382,-0.42438 0.88035,-0.77178 1.1042,-0.77178 0.50624,0 4.40374,-2.63289 4.96241,-3.35242 0.49063,-0.63043 0.23099,-2.28946 -0.46803,-2.99157 -0.27613,-0.27772 -0.50451,-0.7099 -0.50451,-0.96075 0,-0.52292 -2.52255,-6.62918 -2.98156,-7.21813 -0.16766,-0.2132 -0.45326,-0.8511 -0.63564,-1.4155 -0.23878,-0.73446 -0.47758,-0.93437 -0.84489,-0.70592 m -33.14194,22.45407 c -0.42288,0.88145 -0.77111,1.78546 -0.77111,2.01009 0,0.22447 -0.48366,1.40255 -1.07597,2.61631 -0.59219,1.2154 -1.38265,3.05959 -1.757,4.09765 -0.37424,1.03822 -0.89544,2.1443 -1.1588,2.45753 -0.93486,1.11948 -1.27542,7.10674 -1.27542,22.48809 v 15.52686 l 3.04373,3.54677 c 1.67234,1.94971 4.61441,5.24534 6.53689,7.32181 1.92253,2.07623 4.47148,4.87922 5.66608,6.22871 3.28634,3.71854 9.59375,10.57407 11.18525,12.15576 l 1.41081,1.40626 1.22273,-1.23829 c 0.67124,-0.67952 2.23485,-2.416 3.47634,-3.85437 1.23973,-1.4401 2.67876,-3.07089 3.19793,-3.62392 0.51755,-0.55304 2.04296,-2.23871 3.38795,-3.74491 2.61667,-2.93329 4.66903,-5.17371 9.12729,-9.97193 1.54251,-1.66099 3.61935,-3.95432 4.61256,-5.09631 0.99513,-1.14198 1.95074,-2.13279 2.12379,-2.20275 0.59485,-0.23791 0.38558,-35.73471 -0.21793,-37.13902 -0.29351,-0.68172 -0.80931,-1.9197 -1.14752,-2.75007 -0.33865,-0.83068 -0.77719,-1.80653 -0.97437,-2.17069 -0.19973,-0.36266 -1.05529,-2.40079 -1.90187,-4.53016 -2.38908,-6.00041 -1.17384,-6.17411 -13.04569,1.85713 -3.78296,2.55956 -7.02415,4.65492 -7.20286,4.65492 -0.1771,0 -0.41942,0.25465 -0.53837,0.56613 -0.27614,0.71914 -3.72842,0.78324 -4.44707,0.0815 -0.46281,-0.45279 -12.46061,-8.53383 -13.28832,-8.95108 -0.53229,-0.2696 -2.59601,-1.64377 -2.82168,-1.87986 -0.10336,-0.11114 -0.7303,-0.48294 -1.39207,-0.83017 l -1.20202,-0.63077 -0.77284,1.59915"
       stroke="none"
       fill="#cb6566"
       fill-rule="evenodd"
       style="fill:#ed2939;fill-opacity:1;stroke:#ed2939;stroke-width:2.34236;stroke-miterlimit:4;stroke-dasharray:none;stroke-opacity:1" />
    <path
       id="path3-5-1"
       d="m 204.72506,75.810107 c -5.28971,1.57045 -6.36763,10.26065 -1.86417,15.02872 1.10608,1.17012 2.01654,2.29893 2.02217,2.50664 0.25185,9.088703 -0.026,16.632853 -0.61737,17.069013 -0.92174,0.67572 -24.6015,0.70592 -25.27307,0.0316 -1.16256,-1.16647 -0.55314,-5.60606 0.96688,-7.06169 5.58888,-5.346913 4.08394,-15.702133 -2.28181,-15.702133 -6.50496,0 -8.55349,9.53963 -3.22236,15.002513 1.91494,1.96065 2.10496,2.61182 1.8454,6.32674 -0.12592,1.812 0.56965,1.67811 -9.81208,1.88749 l -9.35868,0.18847 -1.46725,1.43822 c -1.58395,1.55318 -1.63657,2.11411 -0.521,5.54566 0.23531,0.72699 0.77716,2.59556 1.20208,4.1524 0.42549,1.5575 1.03835,3.74295 1.36007,4.857 1.13431,3.91432 0.63737,3.65403 -16.40917,-8.61837 -5.6209,-4.04905 -4.08583,-3.77149 -20.91639,-3.78111 -16.9284,0 -15.28801,-0.41692 -16.66504,4.1451 -0.46806,1.55701 -1.07224,3.51069 -1.34127,4.34138 -0.26745,0.83034 -0.76413,2.52919 -1.10044,3.7748 -1.595241,5.87416 -2.959061,10.70609 -3.412441,12.08028 -0.27441,0.83035 -0.87467,2.95424 -1.33368,4.71879 -0.45937,1.76489 -1.05532,3.88829 -1.32434,4.71881 -0.2709,0.83084 -0.77542,2.52936 -1.12491,3.7753 -0.34823,1.24561 -0.8536,2.94445 -1.12307,3.7748 -0.26919,0.83085 -0.75979,2.44476 -1.09106,3.58635 -0.33085,1.14208 -1.12304,3.86024 -1.75694,6.04022 -1.46169,5.01527 -2.54711,8.8259 -3.06249,10.75901 -0.22228,0.83035 -0.82057,2.78403 -1.32993,4.34138 -0.50973,1.557 -1.14562,3.68073 -1.41463,4.71862 -0.71466,2.76927 -3.50085,12.53535 -4.20064,14.72278 -0.33256,1.03806 -0.73376,2.39732 -0.89164,3.02011 -0.42373,1.65921 -2.13508,7.54066 -3.04744,10.46455 -0.99139,3.18219 -0.76936,4.10529 1.34316,5.56441 2.12382,1.46476 2.16705,1.46111 4.47711,-0.5002 1.06841,-0.90799 3.46505,-2.72364 5.3274,-4.03578 1.86227,-1.31346 4.06325,-2.94428 4.89096,-3.62565 2.28932,-1.88583 21.552211,-16.29125 22.370431,-16.73106 1.84351,-0.98927 1.82849,-0.63042 -0.25357,5.98332 l -1.35069,4.29442 0.62089,5.70974 c 0.34211,3.14055 0.7867,7.07048 0.98573,8.73151 0.19972,1.66119 0.53575,4.63385 0.74852,6.60628 1.06657,9.90578 1.95447,17.85808 2.29686,20.57442 0.20839,1.66099 0.54184,5.14331 0.73897,7.73875 0.19971,2.59522 0.70682,7.60668 1.12869,11.13643 0.42285,3.5297 0.93301,8.28241 1.13239,10.55897 0.20146,2.2782 0.44373,4.40166 0.54184,4.71868 0.0982,0.31894 0.35777,2.52936 0.5792,4.91516 0.52272,5.64191 1.19642,6.1892 4.69713,3.81848 0.9651,-0.65318 2.3759,-1.53449 3.13406,-1.95931 3.34653,-1.86852 5.06022,-2.87465 14.60134,-8.56926 5.55881,-3.31646 10.78271,-6.41393 11.6104,-6.88384 0.82753,-0.47009 2.01284,-1.16663 2.63361,-1.54788 0.62087,-0.37952 1.97525,-1.13815 3.00977,-1.68544 2.0336,-1.07608 3.57423,-2.33502 3.57423,-2.92013 0,-0.20201 0.93112,-2.54062 2.06929,-5.19816 1.13805,-2.65586 2.06922,-5.05104 2.06922,-5.323 0,-0.38885 1.99778,-4.7527 2.55461,-5.57952 0.59047,-0.87757 0.80931,2.80868 0.80931,13.74888 l 0.002,12.81828 2.94214,3.03686 c 1.61961,1.67249 3.78296,3.97517 4.8082,5.12098 2.55649,2.85403 8.83571,9.75654 12.02233,13.21655 6.51625,7.07432 10.31433,11.23445 11.45049,12.54249 1.69308,1.94803 2.0749,1.81409 5.29168,-1.86299 1.55192,-1.77218 4.34538,-4.86965 6.20772,-6.88383 1.86233,-2.01203 4.65582,-5.07356 6.20775,-6.80258 5.71869,-6.37034 7.41361,-8.22015 10.9238,-11.914 7.21603,-7.59185 6.43913,-5.06443 6.29055,-20.51006 -0.0609,-6.5062 0.003,-11.90077 0.14682,-11.98957 0.6096,-0.37755 1.78151,1.70816 3.51776,6.26282 0.35775,0.93426 0.94808,2.37818 1.31305,3.20887 0.36643,0.83051 1.1212,2.72922 1.67608,4.21863 1.11929,3.00665 1.24347,3.15211 3.96175,4.58666 1.95076,1.03056 11.55014,6.67057 13.93167,8.18442 0.72419,0.46053 2.41729,1.46451 3.76228,2.23104 1.345,0.76438 3.03799,1.74774 3.7623,2.18193 0.72418,0.43607 3.77165,2.2291 6.77208,3.98832 3.00036,1.75732 6.20962,3.70705 7.13138,4.33383 1.6554,1.12117 3.181,1.44968 3.7529,0.80585 0.45153,-0.50771 1.92815,-12.77468 3.76417,-31.28567 0.53754,-5.42482 1.39953,-13.49972 2.09177,-19.63039 0.30654,-2.6993 0.81453,-7.37074 1.13058,-10.38155 1.10239,-10.47766 1.73444,-16.06861 2.248,-19.87378 0.50624,-3.7524 0.49671,-3.8921 -0.42115,-6.79508 -2.46237,-7.79167 -2.62041,-8.79205 -1.28856,-8.07669 0.73723,0.39634 5.53807,3.91666 7.36274,5.40017 0.62085,0.50385 2.05987,1.5628 3.19795,2.3555 1.13813,0.79103 2.15393,1.54804 2.25733,1.67977 0.10336,0.13106 2.30444,1.80089 4.89098,3.70745 2.58663,1.90424 5.12611,3.81844 5.64346,4.25078 1.49176,1.2476 11.02724,8.31062 11.7722,8.72057 0.79541,0.43566 4.19306,-1.83871 4.49969,-3.01298 0.0998,-0.3849 -0.48542,-2.88954 -1.30175,-5.56806 -1.58395,-5.20025 -4.5411,-15.3456 -5.38202,-18.46192 -0.46804,-1.7385 -1.99026,-6.97641 -4.66328,-16.04388 -0.58093,-1.9726 -1.4391,-4.94543 -1.9075,-6.60612 -0.46802,-1.66136 -0.98755,-3.36005 -1.15317,-3.77547 -0.16589,-0.41525 -0.56007,-1.68923 -0.87468,-2.83131 -0.31607,-1.14192 -1.36763,-4.79428 -2.33829,-8.11634 -0.97065,-3.32206 -1.89803,-6.54972 -2.05798,-7.17284 -0.16159,-0.62265 -0.65647,-2.32149 -1.10044,-3.77482 -0.44373,-1.45348 -1.05532,-3.49193 -1.36001,-4.53016 -0.56616,-1.92714 -0.74677,-2.5803 -2.72766,-9.81503 -1.23408,-4.50379 -3.50455,-12.09155 -4.21,-14.06398 -0.60002,-1.6836 -0.198,-1.6461 -16.74591,-1.52333 -13.98818,0.10613 -14.74062,0.14765 -15.76024,0.86435 -0.58873,0.41526 -1.33369,0.92508 -1.6554,1.13263 -0.87469,0.56241 -9.51101,6.59682 -10.59645,7.40296 -6.34126,4.70552 -9.33985,6.32308 -8.84888,4.77172 0.14848,-0.46653 0.49843,-1.7838 0.78065,-2.92588 0.74154,-3.01647 1.9206,-7.11213 2.59218,-9.01288 0.91238,-2.57632 0.76934,-3.23346 -0.99705,-4.6395 l -1.58387,-1.25888 -8.48018,-0.10784 c -9.81388,-0.12276 -9.4226,0.0316 -9.4226,-3.78244 0,-2.4124 0.009,-2.43878 2.03539,-4.63187 5.0471,-5.470343 3.00787,-15.064553 -3.20176,-15.070193 -6.45608,0 -8.0851,11.05898 -2.32882,15.821243 1.27543,1.05349 2.00346,5.70062 1.11364,7.11047 -0.44978,0.71521 -25.1941,0.68136 -25.78668,-0.0365 -0.28046,-0.33811 -0.42896,-3.37116 -0.44806,-9.09235 l -0.026,-8.584363 1.87737,-1.80652 c 5.62091,-5.4073 2.35331,-17.05175 -4.2363,-15.09823 m -28.81526,42.832023 c 0.60785,0.7323 0.63913,23.47504 0.0347,24.08275 -0.52275,0.52475 -8.02119,0.32483 -8.58177,-0.22995 -0.2501,-0.24736 -0.95188,-2.32016 -1.55757,-4.60399 -1.44102,-5.42836 -4.38306,-15.56624 -4.90789,-16.91787 -0.42895,-1.10259 -0.0782,-2.32165 0.74503,-2.59721 1.56139,-0.52078 13.8057,-0.29465 14.26851,0.26627 m 28.40521,-0.0498 c 0.59652,0.43782 0.64692,1.67595 0.6226,15.10022 -0.026,15.11516 0.14501,17.17634 1.32622,15.9908 0.53579,-0.53787 0.59829,-2.26857 0.54705,-15.35108 -0.0521,-14.1111 -0.026,-14.7792 0.66953,-15.47599 0.83531,-0.83798 24.76525,-1.03225 25.5873,-0.20821 0.4611,0.46238 0.72419,23.14672 0.27613,23.86575 -0.1771,0.28319 -1.15125,0.48128 -2.43606,0.49472 -1.17757,0.0233 -2.80101,0.13604 -3.60808,0.2832 l -1.46723,0.2603 -0.8917,3.39755 c -0.49062,1.86873 -1.12869,4.24729 -1.41836,5.28519 -0.53232,1.90441 -0.95936,3.46356 -2.51128,9.1544 -1.57074,5.76299 -1.83793,4.43775 -1.83793,-9.1544 v -11.07259 l 1.4993,-1.19267 c 6.92827,-5.50602 1.44474,-19.82483 -5.54745,-14.48705 -4.1216,3.14687 -3.96546,11.10079 0.28396,14.5267 l 1.50674,1.21541 v 17.80711 c 0,16.84818 -0.0435,17.96918 -0.78412,20.79486 -0.43243,1.64228 -1.00831,3.83536 -1.28106,4.87375 -1.97152,7.50283 -3.34843,12.68216 -4.36806,16.42147 -2.15575,7.9068 -3.40488,12.6256 -3.79425,14.34503 -0.74503,3.28075 -1.71748,2.82401 -2.70314,-1.26999 -0.30654,-1.27431 -1.08359,-4.18476 -1.72506,-6.46876 -0.64171,-2.28383 -1.40707,-5.17188 -1.70056,-6.41765 -0.29523,-1.24577 -0.78413,-3.19929 -1.091,-4.3412 -1.58204,-5.91379 -2.5415,-9.43576 -3.03051,-11.13645 -0.57573,-1.99681 -1.98836,-7.53301 -2.40974,-9.43759 -0.37081,-1.67248 -0.30133,-34.61912 0.0693,-35.39124 0.1771,-0.36266 0.5453,-0.66079 0.81795,-0.66079 0.27269,0 1.02334,-0.63807 1.6649,-1.41533 4.56924,-5.53255 1.13431,-16.07639 -4.70097,-14.4361 -5.65659,1.58935 -6.80411,10.45326 -1.9564,15.11349 l 1.79271,1.72341 0.0521,6.20811 c 0.11647,13.6582 0.002,16.27981 -0.71464,16.14194 -0.43417,-0.0846 -0.79367,-0.7474 -1.08354,-2.01009 -0.23878,-1.03623 -0.80668,-3.24275 -1.26223,-4.90395 -0.455,-1.66086 -1.24339,-4.63385 -1.74947,-6.60629 -0.50794,-1.97259 -1.17189,-4.35447 -1.47667,-5.29447 l -0.55315,-1.70633 -2.75588,-0.0266 c -1.51613,-0.0233 -2.95525,-0.14931 -3.19604,-0.29647 -0.75199,-0.46618 -0.61304,-23.87735 0.14334,-24.30174 0.98949,-0.55494 24.42849,-0.50218 25.1904,0.0564 m 45.05141,-0.21054 c 0.81971,0.083 0.88222,1.8422 0.14665,4.24514 -0.28049,0.91912 -0.76933,2.60652 -1.08723,3.74877 -0.31783,1.14191 -0.84492,3.01049 -1.1701,4.15241 -0.32565,1.1419 -0.70509,2.66523 -0.84057,3.38409 -0.1372,0.72136 -0.38554,1.57061 -0.55489,1.88815 -0.16765,0.31854 -0.58873,1.59849 -0.93303,2.84409 -1.29611,4.68479 -0.64517,4.15273 -5.09224,4.15273 h -3.91841 l -0.0998,-11.9955 c -0.0956,-11.64594 -0.0782,-12.00429 0.64344,-12.27239 0.63042,-0.23409 10.90304,-0.35121 12.90649,-0.14931 m 53.71216,4.4132 c 0.38728,0.35105 0.80492,1.17393 0.92739,1.82694 0.12243,0.65283 0.71636,2.80112 1.31868,4.7737 0.60177,1.97227 1.35253,4.52039 1.66668,5.66247 0.31607,1.14192 1.09676,3.86008 1.73446,6.04022 0.63995,2.17997 1.50303,5.1528 1.92062,6.60645 0.41764,1.45332 0.90105,3.06689 1.07413,3.58617 0.32128,0.97038 1.50675,5.01328 2.5452,8.68274 0.32132,1.14191 0.79713,2.75583 1.0553,3.58618 0.25792,0.83067 0.75634,2.6143 1.10804,3.96376 0.35168,1.34962 0.86137,3.13326 1.13241,3.96377 0.74502,2.27438 1.98269,6.54805 4.12161,14.21695 0.27092,0.96855 0.59827,1.93278 0.7294,2.14613 0.1294,0.21269 0.39335,1.11952 0.58528,2.01607 0.19188,0.89454 0.70942,2.81787 1.15316,4.2715 0.44198,1.45333 1.05347,3.49178 1.35624,4.52984 0.30306,1.03806 0.80324,2.73692 1.11186,3.77498 2.19527,7.41821 2.03157,8.20692 -1.16073,5.57204 -1.28672,-1.06444 -20.38774,-15.42671 -28.10232,-21.13264 -0.62434,-0.46237 -1.58205,-1.18721 -2.12944,-1.61209 -0.54708,-0.42454 -1.69301,-1.27746 -2.54522,-1.89495 -1.63465,-1.18355 -2.38527,-2.88789 -4.65581,-10.56657 -0.45935,-1.55701 -1.2208,-4.02052 -1.69302,-5.47367 -0.47063,-1.45347 -1.48983,-4.68113 -2.26491,-7.17267 -2.01465,-6.47423 -2.26482,-7.28765 -3.01923,-9.81503 -0.3708,-1.2461 -1.01389,-3.11451 -1.42777,-4.1529 -1.3883,-3.4785 -0.0607,-3.20857 -15.82787,-3.21421 -14.66352,0 -15.32189,-0.0797 -14.62209,-1.61973 0.34647,-0.76249 3.47443,-3.28224 4.07456,-3.28224 0.0962,0 1.06091,-0.63043 2.14447,-1.40072 1.0835,-0.76995 3.74907,-2.64815 5.92186,-4.1733 6.64224,-4.6619 10.48729,-7.39134 12.24801,-8.69784 2.29507,-1.70233 3.05877,-1.78164 16.78169,-1.7118 10.72436,0.0547 12.11074,0.13273 12.73717,0.70045 m -166.1497,0.72848 c 1.05721,0.71538 3.02108,2.08011 4.36614,3.03339 1.34498,0.95112 3.54591,2.4932 4.89097,3.42608 1.34498,0.93204 3.88454,2.71401 5.64338,3.95961 5.79954,4.10547 8.1378,5.64538 8.57796,5.64538 0.58528,0 1.68558,2.20088 1.43156,2.86549 -0.17104,0.44546 -2.5452,0.53239 -14.49038,0.53239 h -14.28723 l -0.58091,0.83217 c -0.57398,0.82122 -1.82475,4.50395 -5.29917,15.58963 -2.40039,7.66326 -3.93164,12.53287 -4.51098,14.34503 -0.26573,0.83035 -0.85794,2.78403 -1.31687,4.34153 -0.45672,1.55702 -0.95559,3.08582 -1.10609,3.39738 -0.21795,0.45309 -8.54975,6.89297 -17.32717,13.39173 -0.7242,0.53638 -2.57898,1.94622 -4.123441,3.13542 -1.54444,1.18738 -3.84321,2.92372 -5.10918,3.85809 -1.26604,0.9342 -4.04632,3.01248 -6.17578,4.61694 -4.72543,3.5578 -5.42523,3.35224 -3.96729,-1.16863 0.54012,-1.68176 0.93487,-3.0596 3.74908,-13.07453 0.70162,-2.4917 1.52371,-5.29482 1.82658,-6.22886 0.30478,-0.93436 0.91802,-2.97299 1.36192,-4.53016 0.99701,-3.49593 1.87552,-6.50989 2.47749,-8.4941 0.53575,-1.76472 1.23216,-4.15439 2.80857,-9.62623 1.46352,-5.08893 2.62232,-8.99796 3.01923,-10.19279 0.17282,-0.51912 0.67384,-2.21781 1.11176,-3.77497 0.438511,-1.55717 1.044011,-3.68074 1.348721,-4.7188 0.30478,-1.03822 1.16072,-4.01105 1.90186,-6.60646 1.35624,-4.745 2.7483,-9.52254 3.7924,-13.02393 0.90664,-3.03504 -0.15445,-2.83148 14.70294,-2.83148 h 13.36551 l 1.91879,1.30068 m 45.03065,27.67109 c 0.34213,0.36449 0.79542,1.34215 1.00833,2.17251 0.98949,3.85825 3.11136,11.9273 3.67573,13.96791 0.75804,2.74074 1.27733,4.7057 2.74276,10.38143 0.61737,2.38785 1.28662,4.76591 1.4879,5.2852 1.29429,3.33698 1.00458,5.09988 -1.83595,11.22321 -0.60005,1.29288 -1.09109,2.43114 -1.09109,2.52737 0,0.21502 -6.29613,15.38143 -7.69199,18.52613 -1.46161,3.29735 -1.53688,3.47104 -2.97217,6.98373 -4.69534,11.48576 -7.12008,17.28052 -8.92226,21.32927 -0.18408,0.41518 -1.16818,2.79362 -2.18398,5.28501 -4.78191,11.71973 -4.70098,11.57812 -7.42863,13.10327 -0.85185,0.47563 -4.83078,2.83318 -8.84132,5.23982 -4.01248,2.40667 -7.54907,4.48844 -7.85941,4.62813 -0.31087,0.14036 -1.07224,0.58131 -1.69305,0.98165 -0.62084,0.40016 -2.31377,1.41927 -3.76225,2.26507 -1.4485,0.8456 -2.88753,1.70439 -3.19795,1.90828 -1.74947,1.14752 -6.47302,3.77318 -6.79284,3.77318 -0.63736,0 -0.99322,-1.54788 -1.2585,-5.47396 -0.14085,-2.07623 -0.48714,-5.64358 -0.76933,-7.92754 -0.56271,-4.53012 -1.36575,-11.65739 -2.27803,-20.19674 -0.31956,-3.01045 -0.82928,-7.59726 -1.13059,-10.19246 -0.30304,-2.59553 -0.89352,-7.86154 -1.31496,-11.70271 -0.42113,-3.84117 -0.9311,-8.25802 -1.13057,-9.8152 -0.82231,-6.38181 -0.88971,-10.02871 -0.22578,-12.14465 0.34823,-1.10591 1.23775,-3.96559 1.97895,-6.35311 0.74159,-2.38785 2.14822,-6.88947 3.12834,-10.00399 0.9819,-3.11433 2.07863,-6.68193 2.43986,-7.92787 0.36123,-1.24577 1.03837,-3.45411 1.50677,-4.90742 1.24528,-3.86938 2.2254,-6.9897 3.78861,-12.08028 2.20653,-7.1896 3.22243,-10.12477 3.83757,-11.10227 l 0.57396,-0.91198 22.79568,0.24919 c 21.0556,0.22845 22.84265,0.29846 23.41634,0.90982 m 94.14354,0.002 c 0.28393,0.56972 0.89914,2.31204 1.36763,3.8692 0.96501,3.2051 4.11025,13.29967 5.64529,18.12051 0.5627,1.76471 1.30175,4.14311 1.64223,5.28502 0.34214,1.14192 1.40706,4.53946 2.3664,7.55011 0.95945,3.01066 2.08441,6.57825 2.50199,7.92737 0.41765,1.3498 1.14934,3.64308 1.62529,5.09673 1.41268,4.30901 2.05042,7.20652 1.84166,8.35573 -0.23356,1.28576 -1.17948,10.03801 -1.6893,15.61569 -0.19795,2.18031 -0.52273,5.06803 -0.72244,6.41766 -0.19798,1.34962 -0.45675,3.72802 -0.57572,5.28529 -0.11813,1.55694 -0.45502,4.7848 -0.74851,7.17254 -0.5679,4.60941 -0.87658,7.34814 -2.08428,18.49777 -0.41594,3.8412 -1.00643,9.02236 -1.31123,11.51387 -0.30477,2.49167 -0.6226,5.35122 -0.70684,6.35544 -0.28569,3.35409 0.34647,3.55224 -11.97536,-3.76957 -4.48839,-2.66881 -10.66789,-6.34014 -13.7323,-8.15785 -3.06432,-1.81959 -5.9105,-3.51269 -6.32434,-3.76381 -3.72277,-2.25738 -3.44438,-1.9478 -5.05837,-5.64933 -0.4255,-0.9738 -0.77286,-1.87034 -0.77286,-1.98944 0,-0.12094 -0.48713,-1.27593 -1.07977,-2.56889 -0.91804,-1.99513 -3.10572,-7.17453 -5.222,-12.3559 -0.29696,-0.72676 -0.84314,-2.00065 -1.21151,-2.83135 -0.37077,-0.83037 -0.97818,-2.3594 -1.34869,-3.39747 -0.37082,-1.03808 -0.79368,-2.05731 -0.9388,-2.26503 -0.14666,-0.20837 -1.13432,-2.45934 -2.19336,-5.00182 -1.05911,-2.54247 -2.79729,-6.7065 -3.86387,-9.24897 -1.06466,-2.54248 -2.48495,-5.98348 -3.15463,-7.6445 -0.66948,-1.66104 -1.66105,-3.98667 -2.20281,-5.16608 -0.5401,-1.18173 -0.98204,-2.26326 -0.98204,-2.40677 0,-0.14599 -0.60347,-1.64012 -1.34305,-3.3277 -1.33751,-3.0523 -1.4786,-3.37879 -2.5584,-5.89852 -2.18963,-5.10751 -2.24042,-5.83235 -0.78586,-10.95147 1.21898,-4.28663 1.55948,-5.57005 2.20473,-8.30116 0.27093,-1.14191 0.87094,-3.43536 1.3337,-5.09656 0.92177,-3.29567 2.14638,-7.8217 3.62683,-13.40154 0.52273,-1.97242 1.1193,-3.75589 1.3243,-3.96376 0.43852,-0.4438 11.83618,-0.74939 32.21264,-0.86254 l 14.38129,-0.0813 0.5132,1.03806 m -81.06765,47.94334 c 0.98948,3.21073 1.49548,5.02256 2.13317,7.6445 0.64172,2.63887 1.85106,7.13668 2.63552,9.81503 1.63283,5.5664 1.11175,5.57586 -6.57651,0.1095 -0.93867,-0.66826 -2.58655,-1.73635 -3.66068,-2.3764 -1.07597,-0.63807 -2.05044,-1.46112 -2.16705,-1.82693 -0.39685,-1.25524 5.83529,-15.91217 6.76642,-15.91217 0.0435,0 0.43679,1.14773 0.86913,2.54829 m 23.0646,-1.13246 c 0.22924,0.57187 1.14186,2.73675 2.02977,4.8132 4.48656,10.49622 4.669,9.28662 -2.08615,13.75425 -2.88941,1.91038 -5.34996,3.63163 -5.46848,3.82407 -0.26919,0.43799 -1.93945,0.46636 -2.20284,0.0382 -0.10506,-0.17336 0.0607,-1.14937 0.37427,-2.17068 0.31087,-1.02097 1.16628,-4.15075 1.89804,-6.95352 0.73375,-2.80295 1.67234,-6.37054 2.0881,-7.92771 0.41422,-1.55701 0.9124,-3.49543 1.10801,-4.30918 0.59395,-2.47064 1.52371,-2.91245 2.25918,-1.07041 m -28.08347,24.43794 c 2.48315,1.62536 6.91882,4.56235 9.85531,6.52882 3.69456,2.47478 5.5418,3.49972 5.9895,3.32786 0.51754,-0.19976 9.89293,-6.33272 18.66471,-12.21052 2.28749,-1.53245 2.17459,-1.67596 6.10802,7.83348 1.16065,2.80295 2.3157,5.43608 2.56781,5.85134 0.33862,0.55871 0.48538,5.5682 0.5644,19.34351 l 0.10684,18.58834 -3.86954,4.21285 c -4.51853,4.91707 -5.30292,5.7835 -7.99488,8.81869 -5.62082,6.33822 -15.87303,17.32754 -16.29444,17.46532 -0.52882,0.1744 -1.47661,-0.75118 -7.04482,-6.88955 -3.98049,-4.38467 -7.94597,-8.70706 -10.56828,-11.5196 -0.87279,-0.93427 -2.57527,-2.79362 -3.78478,-4.13188 -1.21153,-1.3363 -2.45491,-2.69898 -2.76533,-3.02558 -0.31001,-0.32851 -1.45225,-1.62528 -2.53951,-2.8823 l -1.97523,-2.28757 V 253.6664 c 0,-14.51912 0.098,-18.02231 0.53232,-19.03371 2.40783,-5.59655 5.48725,-13.06006 5.48725,-13.29399 0,-0.74573 1.60833,-2.48988 2.01284,-2.18213 0.23704,0.18033 2.46427,1.65936 4.9474,3.2824"
       stroke="none"
       fill="#fffcfd"
       fill-rule="evenodd"
       style="fill:#fffcfd;fill-opacity:1;stroke-width:1.88433" />
    <rect
       style="fill:#ffffff;fill-opacity:1;stroke:#000000;stroke-width:13.8808;stroke-linecap:square;stroke-miterlimit:4;stroke-dasharray:none;stroke-opacity:1;paint-order:markers stroke fill"
       id="rect1071"
       width="145.87605"
       height="529.6228"
       x="594.50952"
       y="82.530975" />
    <text
       xml:space="preserve"
       style="font-size:86.8574px;line-height:1.25;font-family:'TeX Gyre Adventor';-inkscape-font-specification:'TeX Gyre Adventor';writing-mode:tb-rl;stroke-width:2.17143"
       x="667.05786"
       y="116.28581"
       id="text2189"><tspan
         sodipodi:role="line"
         id="tspan2187"
         x="118.28581"
         y="665.05786"
         style="font-style:normal;font-variant:normal;font-weight:900;font-stretch:normal;font-family:'Source Han Serif HC';-inkscape-font-specification:'Source Han Serif HC Heavy';writing-mode:tb-rl;stroke-width:2.17143">南粵史</tspan></text>
    <text
       xml:space="preserve"
       style="font-size:40px;line-height:1.25;font-family:'Prison Gothic';-inkscape-font-specification:'Prison Gothic'"
       x="667.2879"
       y="402.73047"
       id="text7175"><tspan
         sodipodi:role="line"
         id="tspan7173"
         x="365.21109"
         y="704.80725"
         style="font-style:normal;font-variant:normal;font-weight:normal;font-stretch:normal;font-family:'Source Han Serif HC';-inkscape-font-specification:'Source Han Serif HC';writing-mode:tb-rl">執經生 著</tspan></text>
  </g>
  <g
     inkscape:groupmode="layer"
     id="layer2"
     inkscape:label="Layer 2"
     style="display:inline;mix-blend-mode:soft-light">
    <g
       aria-label="A SHORT HISTORY OF CANTONIA "
       id="text7294"
       style="font-size:157.913px;line-height:1;font-family:'TeX Gyre Adventor';-inkscape-font-specification:'TeX Gyre Adventor';stroke-width:3.94781"
       transform="translate(-6.248344,3.1415533)">
      <path
         d="M 102.87239,666.48592 53.919366,549.78822 h -17.05461 l -48.6372,116.6977 h 23.844862 l 12.948868,-30.16138 h 41.53111 l 12.47513,30.16138 z M 57.867186,615.63794 h -24.95025 l 12.47512,-35.37251 z"
         style="font-weight:bold;-inkscape-font-specification:'TeX Gyre Adventor Bold';mix-blend-mode:soft-light;fill:#ffffff;fill-opacity:1;stroke:none"
         id="path14667" />
      <path
         d="M 82.815995,825.50274 V 708.80504 H 61.181914 v 47.05807 H 19.492884 V 708.80504 H -2.1411965 v 116.6977 H 19.492884 v -48.95302 h 41.68903 v 48.95302 z"
         style="font-weight:bold;-inkscape-font-specification:'TeX Gyre Adventor Bold';mix-blend-mode:soft-light;fill:#ffffff;fill-opacity:1;stroke:none"
         id="path14679" />
      <path
         d="m 126.87377,825.50274 v -116.6977 h -21.63408 v 116.6977 z"
         style="font-weight:bold;-inkscape-font-specification:'TeX Gyre Adventor Bold';mix-blend-mode:soft-light;fill:#ffffff;fill-opacity:1;stroke:none"
         id="path14681" />
      <path
         d="m 216.56846,790.13023 c 0,-15.7913 -6.47443,-26.05564 -30.16138,-34.89877 -11.05391,-4.10574 -11.36974,-4.26365 -12.94887,-5.21113 -4.26365,-2.68452 -6.47443,-6.31652 -6.47443,-10.58017 0,-6.94817 4.8953,-11.84347 12.00139,-11.84347 7.264,0 11.68556,4.42156 12.31721,12.31721 h 22.42365 c -1.10539,-20.52869 -15.7913,-33.16173 -34.58295,-33.16173 -18.79165,0 -33.95129,14.68591 -33.95129,33.16173 0,14.68591 8.68521,25.89773 24.3186,31.74051 15.47547,5.84278 16.73878,6.31652 20.21286,9.00104 3.47409,2.68452 5.36904,7.10609 5.36904,11.84348 0,8.36939 -6.47443,14.21217 -15.7913,14.21217 -9.63269,0 -14.84382,-4.73739 -15.7913,-14.528 h -22.58155 c 1.89495,22.10782 17.84416,35.37251 38.37285,35.37251 21.00243,0 37.26747,-16.26504 37.26747,-37.42538 z"
         style="font-weight:bold;-inkscape-font-specification:'TeX Gyre Adventor Bold';mix-blend-mode:soft-light;fill:#ffffff;fill-opacity:1;stroke:none"
         id="path14683" />
      <path
         d="m 286.83981,729.49164 v -20.6866 h -64.90224 v 20.6866 h 21.63408 v 96.0111 h 21.63408 v -96.0111 z"
         style="font-weight:bold;-inkscape-font-specification:'TeX Gyre Adventor Bold';mix-blend-mode:soft-light;fill:#ffffff;fill-opacity:1;stroke:none"
         id="path14685" />
      <path
         d="m 410.3277,767.07494 c 0,-33.31965 -26.68729,-60.32277 -60.00694,-60.32277 -34.74085,0 -61.58606,26.37147 -61.58606,60.48068 0,33.63547 27.16103,60.32276 61.42815,60.32276 33.9513,0 60.16485,-26.37147 60.16485,-60.48067 z m -21.79199,0.31582 c 0,22.42365 -16.42295,39.32034 -38.53077,39.32034 -22.10782,0 -39.47825,-17.37043 -39.47825,-39.47825 0,-22.58156 17.0546,-39.63616 39.47825,-39.63616 21.63408,0 38.53077,17.37043 38.53077,39.79407 z"
         style="font-weight:bold;-inkscape-font-specification:'TeX Gyre Adventor Bold';mix-blend-mode:soft-light;fill:#ffffff;fill-opacity:1;stroke:none"
         id="path14687" />
      <path
         d="m 506.33883,825.50274 -31.5826,-43.11024 c 21.00243,-5.21113 30.47721,-18.00209 30.47721,-36.16208 0,-11.84347 -4.26365,-21.94991 -12.31721,-28.74016 -7.57983,-6.47444 -15.94922,-8.68522 -31.89843,-8.68522 h -33.63547 v 116.6977 h 21.63408 v -44.68937 l 30.63512,44.68937 z m -22.89738,-78.64067 c 0,12.31722 -7.10609,17.68626 -23.84487,17.68626 h -10.58017 v -35.05669 h 9.6327 c 20.52868,0 24.79234,6.94817 24.79234,17.37043 z"
         style="font-weight:bold;-inkscape-font-specification:'TeX Gyre Adventor Bold';mix-blend-mode:soft-light;fill:#ffffff;fill-opacity:1;stroke:none"
         id="path14689" />
      <path
         d="m 604.7187,708.80504 h -23.37112 l -25.73982,53.69042 -25.89773,-53.69042 H 506.3389 l 38.37286,73.58746 v 43.11024 h 21.63408 V 782.3925 Z"
         style="font-weight:bold;-inkscape-font-specification:'TeX Gyre Adventor Bold';mix-blend-mode:soft-light;fill:#ffffff;fill-opacity:1;stroke:none"
         id="path14691" />
      <path
         d="m 113.45112,926.09332 c 0,-33.31964 -26.687301,-60.32276 -60.006942,-60.32276 -34.740859,0 -61.5860683,26.37147 -61.5860683,60.48067 0,33.63547 27.1610353,60.32277 61.4281553,60.32277 33.951293,0 60.164855,-26.37147 60.164855,-60.48068 z m -21.791998,0.31583 c 0,22.42364 -16.422951,39.32033 -38.53077,39.32033 -22.10782,0 -39.478249,-17.37043 -39.478249,-39.47825 0,-22.58155 17.054603,-39.63616 39.478249,-39.63616 21.63408,0 38.53077,17.37043 38.53077,39.79408 z"
         style="font-weight:bold;-inkscape-font-specification:'TeX Gyre Adventor Bold';mix-blend-mode:soft-light;fill:#ffffff;fill-opacity:1;stroke:none"
         id="path14693" />
      <path
         d="m 189.88103,888.51003 v -20.6866 h -59.37528 v 116.6977 h 21.63408 v -47.84764 h 36.00416 v -20.6866 h -36.00416 v -27.47686 z"
         style="font-weight:bold;-inkscape-font-specification:'TeX Gyre Adventor Bold';mix-blend-mode:soft-light;fill:#ffffff;fill-opacity:1;stroke:none"
         id="path14695" />
      <path
         d="M 107.1346,1111.0094 H 81.710604 c -9.47478,9.9486 -17.686256,13.7385 -28.898078,13.7385 -21.476168,0 -39.162423,-18.0021 -39.162423,-39.7941 0,-21.9499 16.422951,-39.3203 38.688684,-39.3203 13.580517,0 22.739471,4.4215 30.635121,14.6859 H 107.1346 c -10.264349,-22.5816 -31.266777,-35.5305 -55.269552,-35.5305 -33.003816,0 -60.0069383,27.0032 -60.0069383,60.007 0,33.6354 27.3189483,60.7965 61.4281553,60.7965 23.844862,0 44.689377,-13.2647 53.848335,-34.583 z"
         style="font-weight:bold;-inkscape-font-specification:'TeX Gyre Adventor Bold';mix-blend-mode:soft-light;fill:#ffffff;fill-opacity:1;stroke:none"
         id="path14697" />
      <path
         d="m 223.67459,1143.5395 -48.95303,-116.6977 h -17.0546 l -48.63721,116.6977 h 23.84487 l 12.94886,-30.1614 h 41.53112 l 12.47512,30.1614 z m -45.00521,-50.848 h -24.95025 l 12.47513,-35.3725 z"
         style="font-weight:bold;-inkscape-font-specification:'TeX Gyre Adventor Bold';mix-blend-mode:soft-light;fill:#ffffff;fill-opacity:1;stroke:none"
         id="path14699" />
      <path
         d="m 330.10791,1143.5395 v -116.6977 h -21.63408 v 84.9572 l -48.32137,-84.9572 h -24.63443 v 116.6977 h 21.63408 v -84.7993 l 48.79511,84.7993 z"
         style="font-weight:bold;-inkscape-font-specification:'TeX Gyre Adventor Bold';mix-blend-mode:soft-light;fill:#ffffff;fill-opacity:1;stroke:none"
         id="path14701" />
      <path
         d="m 407.64315,1047.5284 v -20.6866 h -64.90224 v 20.6866 h 21.63408 v 96.0111 h 21.63408 v -96.0111 z"
         style="font-weight:bold;-inkscape-font-specification:'TeX Gyre Adventor Bold';mix-blend-mode:soft-light;fill:#ffffff;fill-opacity:1;stroke:none"
         id="path14703" />
      <path
         d="m 531.13105,1085.1117 c 0,-33.3196 -26.6873,-60.3228 -60.00694,-60.3228 -34.74086,0 -61.58607,26.3715 -61.58607,60.4807 0,33.6355 27.16104,60.3228 61.42816,60.3228 33.95129,0 60.16485,-26.3715 60.16485,-60.4807 z m -21.792,0.3158 c 0,22.4237 -16.42295,39.3204 -38.53077,39.3204 -22.10782,0 -39.47825,-17.3705 -39.47825,-39.4783 0,-22.5815 17.05461,-39.6361 39.47825,-39.6361 21.63408,0 38.53077,17.3704 38.53077,39.794 z"
         style="font-weight:bold;-inkscape-font-specification:'TeX Gyre Adventor Bold';mix-blend-mode:soft-light;fill:#ffffff;fill-opacity:1;stroke:none"
         id="path14705" />
      <path
         d="m 642.77559,1143.5395 v -116.6977 h -21.63408 v 84.9572 l -48.32138,-84.9572 h -24.63442 v 116.6977 h 21.63408 v -84.7993 l 48.79511,84.7993 z"
         style="font-weight:bold;-inkscape-font-specification:'TeX Gyre Adventor Bold';mix-blend-mode:soft-light;fill:#ffffff;fill-opacity:1;stroke:none"
         id="path14707" />
      <path
         d="M 686.67538,1143.5395 V 1026.8418 H 665.0413 v 116.6977 z"
         style="font-weight:bold;-inkscape-font-specification:'TeX Gyre Adventor Bold';mix-blend-mode:soft-light;fill:#ffffff;fill-opacity:1;stroke:none"
         id="path14709" />
      <path
         d="m 814.26914,1143.5395 -48.95303,-116.6977 h -17.0546 l -48.63721,116.6977 h 23.84487 l 12.94886,-30.1614 h 41.53112 l 12.47513,30.1614 z m -45.00521,-50.848 h -24.95025 l 12.47513,-35.3725 z"
         style="font-weight:bold;-inkscape-font-specification:'TeX Gyre Adventor Bold';mix-blend-mode:soft-light;fill:#ffffff;fill-opacity:1;stroke:none"
         id="path14711" />
    </g>
  </g>
</svg>
